<mxfile host="app.diagrams.net" modified="2023-11-09T16:26:37.151Z" agent="Mozilla/5.0 (Windows NT 10.0; Win64; x64) AppleWebKit/537.36 (KHTML, like Gecko) Chrome/116.0.0.0 Safari/537.36" etag="EaPpUsAAW6rkzUpuw4tQ" version="22.1.0" type="device">
  <diagram id="C5RBs43oDa-KdzZeNtuy" name="Page-1">
    <mxGraphModel dx="1050" dy="577" grid="0" gridSize="10" guides="1" tooltips="1" connect="1" arrows="0" fold="1" page="1" pageScale="1" pageWidth="827" pageHeight="1169" background="none" math="0" shadow="0">
      <root>
        <mxCell id="WIyWlLk6GJQsqaUBKTNV-0" />
        <mxCell id="WIyWlLk6GJQsqaUBKTNV-1" parent="WIyWlLk6GJQsqaUBKTNV-0" />
        <mxCell id="g49DWi-HYQvqbSiKkGJU-3" value="" style="edgeStyle=orthogonalEdgeStyle;rounded=0;orthogonalLoop=1;jettySize=auto;html=1;" edge="1" parent="WIyWlLk6GJQsqaUBKTNV-1" source="g49DWi-HYQvqbSiKkGJU-1" target="g49DWi-HYQvqbSiKkGJU-2">
          <mxGeometry relative="1" as="geometry" />
        </mxCell>
        <mxCell id="g49DWi-HYQvqbSiKkGJU-1" value="Trang chủ nhân viên văn phòng" style="rounded=0;whiteSpace=wrap;html=1;" vertex="1" parent="WIyWlLk6GJQsqaUBKTNV-1">
          <mxGeometry x="270" y="70" width="120" height="60" as="geometry" />
        </mxCell>
        <mxCell id="g49DWi-HYQvqbSiKkGJU-6" value="" style="edgeStyle=orthogonalEdgeStyle;rounded=0;orthogonalLoop=1;jettySize=auto;html=1;" edge="1" parent="WIyWlLk6GJQsqaUBKTNV-1" source="g49DWi-HYQvqbSiKkGJU-2" target="g49DWi-HYQvqbSiKkGJU-4">
          <mxGeometry relative="1" as="geometry" />
        </mxCell>
        <mxCell id="g49DWi-HYQvqbSiKkGJU-2" value="Bảng thông tin chấm công cá nhân theo tháng" style="whiteSpace=wrap;html=1;" vertex="1" parent="WIyWlLk6GJQsqaUBKTNV-1">
          <mxGeometry x="270" y="220" width="120" height="60" as="geometry" />
        </mxCell>
        <mxCell id="g49DWi-HYQvqbSiKkGJU-4" value="Giao diện chọn tháng, năm để xem thông tin chấm công&lt;br&gt;" style="whiteSpace=wrap;html=1;" vertex="1" parent="WIyWlLk6GJQsqaUBKTNV-1">
          <mxGeometry x="270" y="360" width="120" height="60" as="geometry" />
        </mxCell>
      </root>
    </mxGraphModel>
  </diagram>
</mxfile>
